<svg width="44" height="44" viewBox="0 0 44 44" fill="none" xmlns="http://www.w3.org/2000/svg">
<g clip-path="url(#clip0_2_160)">
<path d="M16.8667 26.4C12.8165 26.4 9.53333 29.6832 9.53333 33.7334C9.53333 37.7835 12.8165 41.0667 16.8667 41.0667C20.9168 41.0667 24.2 37.7835 24.2 33.7334C24.1957 29.685 20.915 26.4043 16.8667 26.4ZM16.8667 39.6C13.6265 39.6 11 36.9736 11 33.7334C11 30.4932 13.6265 27.8667 16.8667 27.8667C20.1069 27.8667 22.7333 30.4932 22.7333 33.7334C22.7297 36.9718 20.1051 39.5964 16.8667 39.6Z" fill="#E1D123"/>
<path d="M16.8667 31.5333C17.7622 31.5333 18.3333 31.9673 18.3333 32.2666H19.8C19.8 31.2247 18.8769 30.3807 17.6 30.1401V29.3333H16.1333V30.1401C14.8565 30.3789 13.9333 31.2232 13.9333 32.2666C13.9333 33.5009 15.2217 34.4666 16.8667 34.4666C17.7622 34.4666 18.3333 34.9006 18.3333 35.2C18.3333 35.4993 17.7622 35.9333 16.8667 35.9333C15.9711 35.9333 15.4 35.4993 15.4 35.2H13.9333C13.9333 36.242 14.8565 37.0859 16.1333 37.3266V38.1333H17.6V37.3266C18.8769 37.0877 19.8 36.2434 19.8 35.2C19.8 33.9657 18.5117 33 16.8667 33C15.9711 33 15.4 32.566 15.4 32.2666C15.4 31.9673 15.9711 31.5333 16.8667 31.5333Z" fill="#E1D123"/>
<path d="M37.4 42.5333H6.6V24.9333H18.3333C19.5483 24.9333 20.5333 23.9483 20.5333 22.7333V4.4H28.6V13.2H37.4V23.4667H38.8667V12.163L29.637 2.93333H20.5333V2.2C20.5333 0.985059 19.5483 0 18.3333 0H2.2C0.985059 0 0 0.985059 0 2.2V22.7333C0 23.9483 0.985059 24.9333 2.2 24.9333H5.13333V44H38.8667V33.7333H37.4V42.5333ZM30.0667 5.43698L36.363 11.7333H30.0667V5.43698ZM1.46667 22.7333V2.2C1.46667 1.79502 1.79502 1.46667 2.2 1.46667H18.3333C18.7383 1.46667 19.0667 1.79502 19.0667 2.2V22.7333C19.0667 23.1383 18.7383 23.4667 18.3333 23.4667H2.2C1.79502 23.4667 1.46667 23.1383 1.46667 22.7333Z" fill="#E1D123"/>
<path d="M23.4667 18.3333H24.9333V19.8H23.4667V18.3333Z" fill="#E1D123"/>
<path d="M26.4 18.3333H35.2V19.8H26.4V18.3333Z" fill="#E1D123"/>
<path d="M23.4667 15.4H24.9333V16.8667H23.4667V15.4Z" fill="#E1D123"/>
<path d="M26.4 15.4H35.2V16.8667H26.4V15.4Z" fill="#E1D123"/>
<path d="M23.4667 21.2667H24.9333V22.7333H23.4667V21.2667Z" fill="#E1D123"/>
<path d="M26.4 21.2667H35.2V22.7333H26.4V21.2667Z" fill="#E1D123"/>
<path d="M23.4667 24.2H24.9333V25.6667H23.4667V24.2Z" fill="#E1D123"/>
<path d="M26.4 24.2H35.2V25.6667H26.4V24.2Z" fill="#E1D123"/>
<path d="M18.3333 2.20001H2.20001V7.33335H18.3333V2.20001ZM16.8667 5.86668H3.66668V3.66668H16.8667V5.86668Z" fill="#E1D123"/>
<path d="M5.86668 8.06665H4.40002C3.59006 8.06665 2.93335 8.72336 2.93335 9.53332V11C2.93335 11.8099 3.59006 12.4667 4.40002 12.4667H5.86668C6.67664 12.4667 7.33335 11.8099 7.33335 11V9.53332C7.33335 8.72336 6.67664 8.06665 5.86668 8.06665ZM4.40002 11V9.53332H5.86668V11H4.40002Z" fill="#E1D123"/>
<path d="M11 8.06665H9.53332C8.72336 8.06665 8.06665 8.72336 8.06665 9.53332V11C8.06665 11.8099 8.72336 12.4667 9.53332 12.4667H11C11.8099 12.4667 12.4667 11.8099 12.4667 11V9.53332C12.4667 8.72336 11.8099 8.06665 11 8.06665ZM9.53332 11V9.53332H11V11H9.53332Z" fill="#E1D123"/>
<path d="M16.1333 8.06665H14.6667C13.8567 8.06665 13.2 8.72336 13.2 9.53332V11C13.2 11.8099 13.8567 12.4667 14.6667 12.4667H16.1333C16.9433 12.4667 17.6 11.8099 17.6 11V9.53332C17.6 8.72336 16.9433 8.06665 16.1333 8.06665ZM14.6667 11V9.53332H16.1333V11H14.6667Z" fill="#E1D123"/>
<path d="M5.86668 13.2H4.40002C3.59006 13.2 2.93335 13.8567 2.93335 14.6667V16.1333C2.93335 16.9433 3.59006 17.6 4.40002 17.6H5.86668C6.67664 17.6 7.33335 16.9433 7.33335 16.1333V14.6667C7.33335 13.8567 6.67664 13.2 5.86668 13.2ZM4.40002 16.1333V14.6667H5.86668V16.1333H4.40002Z" fill="#E1D123"/>
<path d="M11 13.2H9.53332C8.72336 13.2 8.06665 13.8567 8.06665 14.6667V16.1333C8.06665 16.9433 8.72336 17.6 9.53332 17.6H11C11.8099 17.6 12.4667 16.9433 12.4667 16.1333V14.6667C12.4667 13.8567 11.8099 13.2 11 13.2ZM9.53332 16.1333V14.6667H11V16.1333H9.53332Z" fill="#E1D123"/>
<path d="M16.1333 13.2H14.6667C13.8567 13.2 13.2 13.8567 13.2 14.6667V16.1333C13.2 16.9433 13.8567 17.6 14.6667 17.6H16.1333C16.9433 17.6 17.6 16.9433 17.6 16.1333V14.6667C17.6 13.8567 16.9433 13.2 16.1333 13.2ZM14.6667 16.1333V14.6667H16.1333V16.1333H14.6667Z" fill="#E1D123"/>
<path d="M5.86668 18.3333H4.40002C3.59006 18.3333 2.93335 18.99 2.93335 19.8V21.2666C2.93335 22.0766 3.59006 22.7333 4.40002 22.7333H5.86668C6.67664 22.7333 7.33335 22.0766 7.33335 21.2666V19.8C7.33335 18.99 6.67664 18.3333 5.86668 18.3333ZM4.40002 21.2666V19.8H5.86668V21.2666H4.40002Z" fill="#E1D123"/>
<path d="M11 18.3333H9.53332C8.72336 18.3333 8.06665 18.99 8.06665 19.8V21.2666C8.06665 22.0766 8.72336 22.7333 9.53332 22.7333H11C11.8099 22.7333 12.4667 22.0766 12.4667 21.2666V19.8C12.4667 18.99 11.8099 18.3333 11 18.3333ZM9.53332 21.2666V19.8H11V21.2666H9.53332Z" fill="#E1D123"/>
<path d="M16.1333 18.3333H14.6667C13.8567 18.3333 13.2 18.99 13.2 19.8V21.2666C13.2 22.0766 13.8567 22.7333 14.6667 22.7333H16.1333C16.9433 22.7333 17.6 22.0766 17.6 21.2666V19.8C17.6 18.99 16.9433 18.3333 16.1333 18.3333ZM14.6667 21.2666V19.8H16.1333V21.2666H14.6667Z" fill="#E1D123"/>
<path d="M43.334 23.3994C42.4635 22.5683 41.0939 22.5683 40.2234 23.3994L27.6518 35.9706C27.5909 36.0322 27.5412 36.1038 27.505 36.1826L25.7347 40.0268C25.6069 40.3054 25.6659 40.6345 25.8829 40.8511C26.0996 41.0681 26.4286 41.1272 26.7072 40.9994L30.5515 39.2291C30.6303 39.1929 30.7019 39.1435 30.7635 39.0823L43.334 26.5107C44.1933 25.6517 44.1933 24.2584 43.334 23.3994ZM29.8181 37.9515L27.8967 38.8366L28.7819 36.9152L38.1552 27.5412L39.1921 28.5782L29.8181 37.9515ZM40.2313 27.538L39.1943 26.5014L39.7078 25.9879L40.7447 27.0249L40.2313 27.538ZM42.2995 25.4701L41.781 25.9886L40.744 24.9516L41.2632 24.4331C41.5529 24.156 42.0095 24.156 42.2995 24.4331C42.5856 24.7196 42.5856 25.1837 42.2995 25.4701Z" fill="#E1D123"/>
</g>
<defs>
<clipPath id="clip0_2_160">
<rect width="44" height="44" fill="white"/>
</clipPath>
</defs>
</svg>
