<svg width="21" height="21" viewBox="0 0 21 21" fill="none" xmlns="http://www.w3.org/2000/svg">
<path d="M14.3438 14.6387L15.1406 13.3262L10.6406 10.6074V5.4043H9.14062V11.4043L14.3438 14.6387ZM3.04688 3.38867C5.01562 1.41992 7.375 0.435547 10.125 0.435547C12.875 0.435547 15.2188 1.41992 17.1562 3.38867C19.125 5.32617 20.1094 7.66992 20.1094 10.4199C20.1094 13.1699 19.125 15.5293 17.1562 17.498C15.2188 19.4355 12.875 20.4043 10.125 20.4043C7.375 20.4043 5.01562 19.4355 3.04688 17.498C1.10938 15.5293 0.140625 13.1699 0.140625 10.4199C0.140625 7.66992 1.10938 5.32617 3.04688 3.38867Z" fill="white"/>
</svg>
