<svg width="19" height="19" viewBox="0 0 19 19" fill="none" xmlns="http://www.w3.org/2000/svg">
<path d="M18.2207 4.3418V15.8457C18.2207 16.7116 17.8991 17.4538 17.2559 18.0723C16.6374 18.6908 15.8952 19 15.0293 19H9.27734C8.38672 19 7.63216 18.6908 7.01367 18.0723L0.779297 11.7266C1.44727 11.0833 1.79362 10.7617 1.81836 10.7617C1.99154 10.6133 2.20182 10.5391 2.44922 10.5391C2.6224 10.5391 2.7832 10.5762 2.93164 10.6504L6.3457 12.5801V3.1543C6.3457 2.83268 6.45703 2.56055 6.67969 2.33789C6.92708 2.09049 7.21159 1.9668 7.5332 1.9668C7.85482 1.9668 8.12695 2.09049 8.34961 2.33789C8.59701 2.56055 8.7207 2.83268 8.7207 3.1543V8.7207H9.5V1.1875C9.5 0.841146 9.61133 0.556641 9.83398 0.333984C10.0566 0.111328 10.3411 0 10.6875 0C11.0339 0 11.3184 0.111328 11.541 0.333984C11.7637 0.556641 11.875 0.841146 11.875 1.1875V8.7207H12.6543V1.9668C12.6543 1.64518 12.7656 1.37305 12.9883 1.15039C13.2357 0.902995 13.5202 0.779297 13.8418 0.779297C14.1634 0.779297 14.4355 0.902995 14.6582 1.15039C14.9056 1.37305 15.0293 1.64518 15.0293 1.9668V8.7207H15.8457V4.3418C15.8457 4.02018 15.957 3.74805 16.1797 3.52539C16.4271 3.27799 16.7116 3.1543 17.0332 3.1543C17.3548 3.1543 17.627 3.27799 17.8496 3.52539C18.097 3.74805 18.2207 4.02018 18.2207 4.3418Z" fill="#999999"/>
</svg>
