<svg width="44" height="44" viewBox="0 0 44 44" fill="none" xmlns="http://www.w3.org/2000/svg">
<path d="M37.8073 2.20001H12.7591C12.181 2.20001 11.7104 2.6738 11.7104 3.25557C11.7104 3.46677 11.8815 3.63793 12.0928 3.63793C12.3041 3.63793 12.4753 3.46677 12.4753 3.25557C12.4753 3.1006 12.6077 2.965 12.7591 2.965H37.8073C37.9586 2.965 38.091 3.1006 38.091 3.25557V39.1847C38.091 39.3395 37.9586 39.4751 37.8073 39.4751C37.596 39.4751 37.4248 39.6463 37.4248 39.8576C37.4248 40.0689 37.596 40.24 37.8073 40.24C38.3854 40.24 38.856 39.7662 38.856 39.1846V3.25557C38.856 2.6738 38.3854 2.20001 37.8073 2.20001Z" fill="#E1D123"/>
<path d="M36.096 3.7605H11.0478C10.468 3.7605 10.0142 4.21079 10.0142 4.78517V12.6011C10.0142 12.8124 10.1853 12.9834 10.3966 12.9834C10.6079 12.9834 10.779 12.8124 10.779 12.6011V4.78508C10.779 4.63434 10.8923 4.52539 11.0477 4.52539H36.0959C36.2472 4.52539 36.3797 4.661 36.3797 4.81588V40.7602C36.3797 40.9121 36.2524 41.0352 36.0959 41.0352H11.0478C10.9048 41.0352 10.7791 40.8922 10.7791 40.7295V25.8626C10.7791 25.6512 10.608 25.4801 10.3967 25.4801C10.1854 25.4801 10.0143 25.6512 10.0143 25.8626V40.7294C10.0143 41.3194 10.4782 41.8 11.0479 41.8H36.0961C36.6742 41.8 37.1447 41.3336 37.1447 40.7602V4.81588C37.1446 4.23429 36.6741 3.7605 36.096 3.7605Z" fill="#E1D123"/>
<path d="M34.6571 35.1466H12.5018C12.2905 35.1466 12.1194 35.3177 12.1194 35.529C12.1194 35.7403 12.2905 35.9114 12.5018 35.9114H34.6571C34.8684 35.9114 35.0395 35.7403 35.0395 35.529C35.0395 35.3177 34.8684 35.1466 34.6571 35.1466Z" fill="#E1D123"/>
<path d="M34.6572 33.0513H21.3762C21.165 33.0513 20.9938 33.2224 20.9938 33.4338C20.9938 33.645 21.165 33.8161 21.3762 33.8161H34.6571C34.8684 33.8161 35.0394 33.645 35.0394 33.4338C35.0395 33.2224 34.8684 33.0513 34.6572 33.0513Z" fill="#E1D123"/>
<path d="M12.5018 33.8161H17.5145C17.7258 33.8161 17.8969 33.645 17.8969 33.4338C17.8969 33.2224 17.7258 33.0513 17.5145 33.0513H12.5018C12.2905 33.0513 12.1194 33.2224 12.1194 33.4338C12.1194 33.645 12.2905 33.8161 12.5018 33.8161Z" fill="#E1D123"/>
<path d="M34.6571 30.9556H20.8159C20.6046 30.9556 20.4335 31.1266 20.4335 31.3379C20.4335 31.5492 20.6046 31.7204 20.8159 31.7204H34.6571C34.8683 31.7204 35.0394 31.5492 35.0394 31.3379C35.0395 31.1266 34.8684 30.9556 34.6571 30.9556Z" fill="#E1D123"/>
<path d="M12.5018 31.7205H15.7881C15.9995 31.7205 16.1705 31.5493 16.1705 31.338C16.1705 31.1268 15.9995 30.9557 15.7881 30.9557H12.5018C12.2905 30.9557 12.1194 31.1268 12.1194 31.338C12.1194 31.5492 12.2905 31.7205 12.5018 31.7205Z" fill="#E1D123"/>
<path d="M34.6571 28.8603H20.0585C19.8471 28.8603 19.676 29.0314 19.676 29.2427C19.676 29.4539 19.8471 29.6251 20.0585 29.6251H34.6571C34.8684 29.6251 35.0395 29.4539 35.0395 29.2427C35.0395 29.0314 34.8684 28.8603 34.6571 28.8603Z" fill="#E1D123"/>
<path d="M12.5018 29.6252H14.319C14.5302 29.6252 14.7014 29.4541 14.7014 29.2429C14.7014 29.0315 14.5302 28.8604 14.319 28.8604H12.5018C12.2905 28.8604 12.1194 29.0315 12.1194 29.2429C12.1194 29.4541 12.2905 29.6252 12.5018 29.6252Z" fill="#E1D123"/>
<path d="M34.6572 26.7646H19.135C18.9236 26.7646 18.7526 26.9357 18.7526 27.1469C18.7526 27.3582 18.9236 27.5294 19.135 27.5294H34.6572C34.8684 27.5294 35.0395 27.3582 35.0395 27.1469C35.0395 26.9357 34.8684 26.7646 34.6572 26.7646Z" fill="#E1D123"/>
<path d="M12.5018 27.5295H12.9562C13.1675 27.5295 13.3386 27.3584 13.3386 27.1471C13.3386 26.9358 13.1675 26.7647 12.9562 26.7647H12.5018C12.2905 26.7647 12.1194 26.9358 12.1194 27.1471C12.1194 27.3584 12.2905 27.5295 12.5018 27.5295Z" fill="#E1D123"/>
<path d="M34.6571 24.6846H18.1203C17.909 24.6846 17.7378 24.8556 17.7378 25.0669C17.7378 25.2783 17.909 25.4494 18.1203 25.4494H34.6571C34.8684 25.4494 35.0395 25.2783 35.0395 25.0669C35.0395 24.8556 34.8684 24.6846 34.6571 24.6846Z" fill="#E1D123"/>
<path d="M34.6571 22.5892H17.0147C16.8034 22.5892 16.6323 22.7603 16.6323 22.9717C16.6323 23.183 16.8034 23.354 17.0147 23.354H34.6571C34.8684 23.354 35.0395 23.183 35.0395 22.9717C35.0395 22.7604 34.8684 22.5892 34.6571 22.5892Z" fill="#E1D123"/>
<path d="M34.6571 20.4935H15.8486C15.6374 20.4935 15.4663 20.6646 15.4663 20.8759C15.4663 21.0873 15.6374 21.2583 15.8486 21.2583H34.6571C34.8684 21.2583 35.0395 21.0873 35.0395 20.8759C35.0395 20.6647 34.8684 20.4935 34.6571 20.4935Z" fill="#E1D123"/>
<path d="M34.6572 18.3984H14.6221C14.4108 18.3984 14.2397 18.5695 14.2397 18.7808C14.2397 18.9921 14.4108 19.1632 14.6221 19.1632H34.6571C34.8683 19.1632 35.0394 18.9921 35.0394 18.7808C35.0394 18.5695 34.8684 18.3984 34.6572 18.3984Z" fill="#E1D123"/>
<path d="M34.6571 16.3026H13.3043C13.093 16.3026 12.9218 16.4737 12.9218 16.6851C12.9218 16.8963 13.093 17.0674 13.3043 17.0674H34.6571C34.8684 17.0674 35.0395 16.8963 35.0395 16.6851C35.0395 16.4737 34.8684 16.3026 34.6571 16.3026Z" fill="#E1D123"/>
<path d="M34.6571 14.2073H12.5018C12.2905 14.2073 12.1194 14.3785 12.1194 14.5898C12.1194 14.8011 12.2905 14.9721 12.5018 14.9721H34.6571C34.8684 14.9721 35.0395 14.8011 35.0395 14.5898C35.0395 14.3785 34.8684 14.2073 34.6571 14.2073Z" fill="#E1D123"/>
<path d="M34.6571 12.1116H12.5018C12.2905 12.1116 12.1194 12.2827 12.1194 12.4941C12.1194 12.7054 12.2905 12.8764 12.5018 12.8764H34.6571C34.8684 12.8764 35.0395 12.7054 35.0395 12.4941C35.0395 12.2827 34.8684 12.1116 34.6571 12.1116Z" fill="#E1D123"/>
<path d="M34.6571 10.0316H12.5018C12.2905 10.0316 12.1194 10.2026 12.1194 10.414C12.1194 10.6253 12.2905 10.7964 12.5018 10.7964H34.6571C34.8684 10.7964 35.0395 10.6253 35.0395 10.414C35.0395 10.2026 34.8684 10.0316 34.6571 10.0316Z" fill="#E1D123"/>
<path d="M34.6571 37.2423H12.5018C12.2905 37.2423 12.1194 37.4134 12.1194 37.6247C12.1194 37.836 12.2905 38.0071 12.5018 38.0071H34.6571C34.8684 38.0071 35.0395 37.836 35.0395 37.6247C35.0395 37.4134 34.8684 37.2423 34.6571 37.2423Z" fill="#E1D123"/>
<path d="M35.5242 8.30318V6.78905C35.5242 6.30021 35.1434 5.91724 34.6571 5.91724H12.5018C12.0155 5.91724 11.6348 6.30012 11.6348 6.78905V8.30309C11.6348 8.79184 12.0155 9.17473 12.5018 9.17473H34.6571C35.1434 9.17482 35.5242 8.79193 35.5242 8.30318ZM34.7593 8.30318C34.7593 8.36733 34.7181 8.4101 34.6571 8.4101H12.5018C12.4408 8.4101 12.3996 8.36733 12.3996 8.30318V6.78905C12.3996 6.7249 12.4408 6.68213 12.5018 6.68213H34.6571C34.7181 6.68213 34.7594 6.7249 34.7594 6.78905V8.30318H34.7593Z" fill="#E1D123"/>
<path d="M11.0181 25.6179C11.0822 25.6179 11.1474 25.6017 11.2074 25.5672C11.3906 25.4628 11.4542 25.2292 11.3493 25.0455L6.08002 15.8226C5.91053 15.5257 5.86512 15.1694 5.94802 14.8344C6.05177 14.4813 6.26781 14.1974 6.55795 14.0347L6.97586 13.7968C7.43865 15.2093 8.22555 16.9544 9.06137 18.6396C10.2027 20.9557 11.3626 23.0116 11.6399 23.4981C12.5885 25.158 13.5495 26.7215 14.4661 28.1143C14.4674 28.1164 14.4674 28.119 14.4688 28.121C14.492 28.1565 14.5174 28.1921 14.5407 28.2277C14.8015 28.6224 15.0587 29.004 15.3105 29.3679C15.3686 29.4518 15.427 29.5348 15.4856 29.6186C15.7295 29.9671 15.9692 30.3032 16.2011 30.6176C16.2491 30.6833 16.2948 30.7503 16.3431 30.8158C16.348 30.8225 16.356 30.8248 16.3613 30.8311C17.348 32.1503 18.2091 33.1347 18.8375 33.6279C18.9616 33.7239 19.1322 33.7359 19.2679 33.656L19.3999 33.5783L19.7462 34.1517C19.8177 34.2707 19.944 34.3365 20.0739 34.3365C20.1412 34.3365 20.2089 34.3186 20.271 34.2812C20.4516 34.1722 20.5099 33.9373 20.4004 33.7563L20.0587 33.1903L20.1767 33.1203C20.308 33.0431 20.3811 32.8948 20.3618 32.7436C20.2638 31.9634 19.8488 30.7134 19.1994 29.171V29.171L19.199 29.1698C19.0367 28.7844 18.8601 28.3812 18.6693 27.9612C18.3979 27.3575 18.1189 26.7568 17.8269 26.1668C17.821 26.1549 17.8098 26.1472 17.8028 26.136C17.0707 24.652 16.2158 23.0425 15.2715 21.3899C14.6068 20.2287 13.8898 19.0361 13.164 17.8888C13.1613 17.8838 13.161 17.8778 13.158 17.873C11.8474 15.799 10.3087 13.5458 9.02916 12.1693C8.38324 11.4606 7.82955 10.9921 7.43223 10.8852C7.18759 10.8193 7.01317 10.8748 6.90018 10.9367C6.89604 10.939 6.89068 10.9385 6.88645 10.941C6.88645 10.941 6.88592 10.9417 6.8854 10.942L6.88381 10.9425C6.82168 10.9797 6.77179 11.0317 6.72832 11.0918C6.70816 11.119 6.69285 11.152 6.67631 11.1837C6.65915 11.2178 6.64296 11.253 6.62993 11.292C6.6118 11.3436 6.59658 11.3985 6.58549 11.4583C6.584 11.4666 6.58329 11.4758 6.58206 11.4843C6.51879 11.8659 6.58391 12.399 6.75172 13.0442L6.18104 13.3691C5.71781 13.6287 5.37444 14.0733 5.21005 14.6348C5.07497 15.1773 5.14801 15.7334 5.41571 16.202L10.6856 25.4253C10.7562 25.5484 10.8851 25.6179 11.0181 25.6179ZM8.32376 12.5177C9.2027 13.4692 10.4924 15.1619 12.025 17.5227C12.0556 17.5701 12.0861 17.6171 12.117 17.665C12.1762 17.7566 12.2376 17.8546 12.2975 17.9481L10.1891 19.1799C9.66188 18.1465 9.22074 17.22 8.84762 16.3882C8.81682 16.3193 8.7832 16.2466 8.75337 16.1789C8.59656 15.8248 8.4562 15.4942 8.32631 15.1791C8.28389 15.0764 8.24403 14.9775 8.20434 14.8786C7.63947 13.4713 7.34977 12.4805 7.29196 11.9547C7.29196 11.9546 7.29196 11.9545 7.29196 11.9545C7.27691 11.8177 7.27717 11.7118 7.29152 11.6368C7.29407 11.6378 7.29759 11.6401 7.30032 11.6411C7.33666 11.6544 7.3804 11.6792 7.42492 11.7056C7.46074 11.7275 7.49858 11.7522 7.54047 11.7829C7.54645 11.7873 7.55314 11.7925 7.55921 11.797C7.70265 11.9042 7.88112 12.0636 8.09196 12.2759C8.12136 12.3057 8.15031 12.3349 8.18076 12.3666C8.22687 12.4143 8.27474 12.4652 8.32376 12.5177ZM17.4027 27.0515C17.7365 27.7462 18.0606 28.4498 18.3628 29.1572L16.7604 30.0836C16.7247 30.0347 16.6891 29.987 16.653 29.9373C16.2378 29.3634 15.8344 28.784 15.4464 28.2049C15.4086 28.1487 15.3711 28.093 15.3333 28.0362L17.3184 26.8763C17.3471 26.9353 17.3745 26.993 17.4027 27.0515ZM19.3985 32.6918C19.375 32.7001 19.3525 32.7106 19.3306 32.7242C19.3113 32.7357 19.2931 32.7487 19.2763 32.7633L19.1119 32.8604C18.6078 32.4137 17.9577 31.664 17.2215 30.7003L18.6664 29.8648C19.1273 30.9952 19.4412 31.9349 19.5643 32.5938L19.3985 32.6918ZM16.9787 26.1886L14.912 27.3967C14.0592 26.0873 13.1722 24.6379 12.3041 23.1189C11.6471 21.9662 11.0577 20.8793 10.5324 19.8653L12.7079 18.5941C13.3135 19.5607 13.9496 20.6196 14.6078 21.7697C15.4865 23.3071 16.2861 24.8027 16.9787 26.1886Z" fill="#E1D123"/>
</svg>
