<svg width="44" height="44" viewBox="0 0 44 44" fill="none" xmlns="http://www.w3.org/2000/svg">
<path d="M25.4375 37.125H24.0625V30.3875C24.0625 30.2052 23.9901 30.0303 23.8611 29.9014C23.7322 29.7724 23.5573 29.7 23.375 29.7C23.1927 29.7 23.0178 29.7724 22.8889 29.9014C22.7599 30.0303 22.6875 30.2052 22.6875 30.3875V37.125H4.8125V23.375H10.5325C10.7148 23.375 10.8897 23.3026 11.0186 23.1736C11.1476 23.0447 11.22 22.8698 11.22 22.6875C11.22 22.5052 11.1476 22.3303 11.0186 22.2014C10.8897 22.0724 10.7148 22 10.5325 22H4.125C3.94266 22 3.7678 22.0724 3.63886 22.2014C3.50993 22.3303 3.4375 22.5052 3.4375 22.6875V37.125H2.0625C1.88016 37.125 1.7053 37.1974 1.57636 37.3264C1.44743 37.4553 1.375 37.6302 1.375 37.8125V39.1875C1.375 40.0992 1.73716 40.9735 2.38182 41.6182C3.02648 42.2628 3.90082 42.625 4.8125 42.625H22.6875C23.5992 42.625 24.4735 42.2628 25.1182 41.6182C25.7628 40.9735 26.125 40.0992 26.125 39.1875V37.8125C26.125 37.6302 26.0526 37.4553 25.9236 37.3264C25.7947 37.1974 25.6198 37.125 25.4375 37.125ZM24.75 39.1875C24.75 39.7345 24.5327 40.2591 24.1459 40.6459C23.7591 41.0327 23.2345 41.25 22.6875 41.25H21.3125V40.5625C21.3125 40.3802 21.2401 40.2053 21.1111 40.0764C20.9822 39.9474 20.8073 39.875 20.625 39.875C20.4427 39.875 20.2678 39.9474 20.1389 40.0764C20.0099 40.2053 19.9375 40.3802 19.9375 40.5625V41.25H7.5625V40.5625C7.5625 40.3802 7.49007 40.2053 7.36114 40.0764C7.2322 39.9474 7.05734 39.875 6.875 39.875C6.69266 39.875 6.5178 39.9474 6.38886 40.0764C6.25993 40.2053 6.1875 40.3802 6.1875 40.5625V41.25H4.8125C4.26549 41.25 3.74089 41.0327 3.35409 40.6459C2.9673 40.2591 2.75 39.7345 2.75 39.1875V38.5H24.75V39.1875Z" fill="#E1D123"/>
<path d="M37.125 5.5H38.5C38.6823 5.5 38.8572 5.42757 38.9861 5.29864C39.1151 5.1697 39.1875 4.99484 39.1875 4.8125C39.1875 4.63016 39.1151 4.4553 38.9861 4.32636C38.8572 4.19743 38.6823 4.125 38.5 4.125H37.125C36.578 4.125 36.0534 4.3423 35.6666 4.72909C35.2798 5.11589 35.0625 5.64049 35.0625 6.1875V6.875H34.375C34.1927 6.875 34.0178 6.94743 33.8889 7.07636C33.7599 7.2053 33.6875 7.38016 33.6875 7.5625C33.6875 7.74484 33.7599 7.9197 33.8889 8.04864C34.0178 8.17757 34.1927 8.25 34.375 8.25H35.0625V10.3125C35.0625 10.4948 35.1349 10.6697 35.2639 10.7986C35.3928 10.9276 35.5677 11 35.75 11C35.9323 11 36.1072 10.9276 36.2361 10.7986C36.3651 10.6697 36.4375 10.4948 36.4375 10.3125V8.25H37.125C37.3073 8.25 37.4822 8.17757 37.6111 8.04864C37.7401 7.9197 37.8125 7.74484 37.8125 7.5625C37.8125 7.38016 37.7401 7.2053 37.6111 7.07636C37.4822 6.94743 37.3073 6.875 37.125 6.875H36.4375V6.1875C36.4375 6.00516 36.5099 5.8303 36.6389 5.70136C36.7678 5.57243 36.9427 5.5 37.125 5.5Z" fill="#E1D123"/>
<path d="M40.5625 1.375H32.3125C31.7655 1.375 31.2409 1.5923 30.8541 1.97909C30.4673 2.36589 30.25 2.89049 30.25 3.4375V4.8125C30.25 4.99484 30.3224 5.1697 30.4514 5.29864C30.5803 5.42757 30.7552 5.5 30.9375 5.5C31.1198 5.5 31.2947 5.42757 31.4236 5.29864C31.5526 5.1697 31.625 4.99484 31.625 4.8125V3.4375C31.625 3.25516 31.6974 3.0803 31.8264 2.95136C31.9553 2.82243 32.1302 2.75 32.3125 2.75H40.5625C40.7448 2.75 40.9197 2.82243 41.0486 2.95136C41.1776 3.0803 41.25 3.25516 41.25 3.4375V11.6875C41.25 11.8698 41.1776 12.0447 41.0486 12.1736C40.9197 12.3026 40.7448 12.375 40.5625 12.375H32.3125C32.1302 12.375 31.9553 12.3026 31.8264 12.1736C31.6974 12.0447 31.625 11.8698 31.625 11.6875V7.5625C31.625 7.38016 31.5526 7.2053 31.4236 7.07636C31.2947 6.94743 31.1198 6.875 30.9375 6.875C30.7552 6.875 30.5803 6.94743 30.4514 7.07636C30.3224 7.2053 30.25 7.38016 30.25 7.5625V11.6875C30.25 12.2345 30.4673 12.7591 30.8541 13.1459C31.2409 13.5327 31.7655 13.75 32.3125 13.75H40.5625C41.1095 13.75 41.6341 13.5327 42.0209 13.1459C42.4077 12.7591 42.625 12.2345 42.625 11.6875V3.4375C42.625 2.89049 42.4077 2.36589 42.0209 1.97909C41.6341 1.5923 41.1095 1.375 40.5625 1.375Z" fill="#E1D123"/>
<path d="M33.6875 28.875C33.6875 29.4189 33.8488 29.9506 34.151 30.4028C34.4531 30.8551 34.8826 31.2075 35.3851 31.4157C35.8876 31.6238 36.4406 31.6783 36.974 31.5722C37.5074 31.4661 37.9974 31.2041 38.382 30.8195C38.7666 30.4349 39.0286 29.9449 39.1347 29.4115C39.2408 28.8781 39.1863 28.3251 38.9782 27.8226C38.77 27.3201 38.4176 26.8906 37.9653 26.5885C37.5131 26.2863 36.9814 26.125 36.4375 26.125C35.7082 26.125 35.0087 26.4147 34.493 26.9305C33.9772 27.4462 33.6875 28.1457 33.6875 28.875ZM37.8125 28.875C37.8125 29.1469 37.7319 29.4128 37.5808 29.6389C37.4297 29.865 37.2149 30.0413 36.9637 30.1453C36.7124 30.2494 36.436 30.2766 36.1692 30.2236C35.9025 30.1705 35.6575 30.0396 35.4652 29.8473C35.2729 29.655 35.142 29.41 35.0889 29.1433C35.0359 28.8765 35.0631 28.6001 35.1672 28.3488C35.2712 28.0976 35.4475 27.8828 35.6736 27.7317C35.8997 27.5806 36.1656 27.5 36.4375 27.5C36.8022 27.5 37.1519 27.6449 37.4098 27.9027C37.6676 28.1606 37.8125 28.5103 37.8125 28.875Z" fill="#E1D123"/>
<path d="M40.5625 22.6875H32.3125C31.7655 22.6875 31.2409 22.9048 30.8541 23.2916C30.4673 23.6784 30.25 24.203 30.25 24.75V33C30.25 33.547 30.4673 34.0716 30.8541 34.4584C31.2409 34.8452 31.7655 35.0625 32.3125 35.0625H40.5625C41.1095 35.0625 41.6341 34.8452 42.0209 34.4584C42.4077 34.0716 42.625 33.547 42.625 33V31.625C42.625 31.4427 42.5526 31.2678 42.4236 31.1389C42.2947 31.0099 42.1198 30.9375 41.9375 30.9375C41.7552 30.9375 41.5803 31.0099 41.4514 31.1389C41.3224 31.2678 41.25 31.4427 41.25 31.625V33C41.25 33.1823 41.1776 33.3572 41.0486 33.4861C40.9197 33.6151 40.7448 33.6875 40.5625 33.6875H32.3125C32.1302 33.6875 31.9553 33.6151 31.8264 33.4861C31.6974 33.3572 31.625 33.1823 31.625 33V24.75C31.625 24.5677 31.6974 24.3928 31.8264 24.2639C31.9553 24.1349 32.1302 24.0625 32.3125 24.0625H40.5625C40.7448 24.0625 40.9197 24.1349 41.0486 24.2639C41.1776 24.3928 41.25 24.5677 41.25 24.75V28.875C41.25 29.0573 41.3224 29.2322 41.4514 29.3611C41.5803 29.4901 41.7552 29.5625 41.9375 29.5625C42.1198 29.5625 42.2947 29.4901 42.4236 29.3611C42.5526 29.2322 42.625 29.0573 42.625 28.875V24.75C42.625 24.203 42.4077 23.6784 42.0209 23.2916C41.6341 22.9048 41.1095 22.6875 40.5625 22.6875Z" fill="#E1D123"/>
<path d="M16.8231 9.52187C16.9325 9.58968 17.0588 9.62541 17.1875 9.62499C17.2951 9.62435 17.4011 9.59845 17.4969 9.54937L21.6219 7.48687C21.7345 7.42918 21.829 7.34152 21.895 7.23356C21.961 7.1256 21.9959 7.00153 21.9959 6.87499C21.9959 6.74846 21.961 6.62439 21.895 6.51643C21.829 6.40847 21.7345 6.32081 21.6219 6.26312L17.4969 4.20062C17.3922 4.14788 17.2758 4.12277 17.1587 4.12768C17.0416 4.13258 16.9277 4.16734 16.8279 4.22864C16.728 4.28995 16.6454 4.37577 16.588 4.47796C16.5307 4.58014 16.5004 4.6953 16.5 4.81249V8.93749C16.4998 9.05433 16.5293 9.1693 16.5858 9.27155C16.6424 9.3738 16.724 9.45995 16.8231 9.52187ZM17.875 5.92624L19.7725 6.87499L17.875 7.82374V5.92624Z" fill="#E1D123"/>
<path d="M18.5625 13.0625C19.7863 13.0625 20.9826 12.6996 22.0001 12.0197C23.0176 11.3398 23.8107 10.3735 24.279 9.24286C24.7473 8.11224 24.8699 6.86814 24.6311 5.66788C24.3924 4.46762 23.8031 3.36512 22.9377 2.49978C22.0724 1.63444 20.9699 1.04514 19.7696 0.806394C18.5694 0.567648 17.3253 0.690181 16.1946 1.1585C15.064 1.62682 14.0977 2.41988 13.4178 3.43741C12.7379 4.45494 12.375 5.65123 12.375 6.875C12.375 8.51603 13.0269 10.0898 14.1873 11.2502C15.3477 12.4106 16.9215 13.0625 18.5625 13.0625ZM18.5625 2.0625C19.5143 2.0625 20.4448 2.34475 21.2362 2.87356C22.0276 3.40236 22.6444 4.15397 23.0087 5.03334C23.3729 5.91271 23.4682 6.88034 23.2825 7.81387C23.0968 8.74741 22.6385 9.60491 21.9655 10.278C21.2924 10.951 20.4349 11.4093 19.5014 11.595C18.5678 11.7807 17.6002 11.6854 16.7208 11.3212C15.8415 10.9569 15.0899 10.3401 14.5611 9.54868C14.0322 8.75727 13.75 7.82683 13.75 6.875C13.75 5.59865 14.257 4.37457 15.1595 3.47205C16.0621 2.56953 17.2861 2.0625 18.5625 2.0625Z" fill="#E1D123"/>
<path d="M25.4375 15.8125C25.5442 15.8125 25.6495 15.7877 25.745 15.7399C25.8404 15.6922 25.9235 15.6229 25.9875 15.5375L28.05 12.7875C28.1594 12.6416 28.2064 12.4583 28.1806 12.2778C28.1548 12.0973 28.0584 11.9344 27.9125 11.825C27.7666 11.7156 27.5833 11.6686 27.4028 11.6944C27.2223 11.7202 27.0594 11.8166 26.95 11.9625L24.8875 14.7125C24.7781 14.8584 24.7311 15.0417 24.7569 15.2222C24.7827 15.4027 24.8791 15.5656 25.025 15.675C25.144 15.7643 25.2887 15.8125 25.4375 15.8125Z" fill="#E1D123"/>
<path d="M26.95 18.2875C27.014 18.3729 27.0971 18.4422 27.1925 18.4899C27.288 18.5377 27.3933 18.5625 27.5 18.5625C27.6488 18.5625 27.7935 18.5143 27.9125 18.425L30.6625 16.3625C30.8084 16.2531 30.9048 16.0902 30.9306 15.9097C30.9564 15.7292 30.9094 15.5459 30.8 15.4C30.6906 15.2541 30.5277 15.1577 30.3472 15.1319C30.1667 15.1061 29.9834 15.1531 29.8375 15.2625L27.0875 17.325C26.9416 17.4344 26.8452 17.5973 26.8194 17.7778C26.7936 17.9583 26.8406 18.1416 26.95 18.2875Z" fill="#E1D123"/>
<path d="M33.6875 19.8C33.6712 19.7089 33.6366 19.622 33.5858 19.5445C33.5351 19.4671 33.4692 19.4007 33.3921 19.3493C33.3151 19.2979 33.2285 19.2627 33.1375 19.2456C33.0464 19.2285 32.9529 19.23 32.8625 19.25L29.425 19.9375C29.3347 19.9465 29.2471 19.9733 29.1671 20.0162C29.0872 20.059 29.0165 20.1173 28.959 20.1875C28.843 20.3293 28.788 20.5114 28.8062 20.6938C28.8245 20.8761 28.9144 21.0437 29.0562 21.1598C29.1981 21.2758 29.3802 21.3307 29.5625 21.3125H29.7L33.1375 20.625C33.2286 20.6087 33.3156 20.5741 33.393 20.5233C33.4705 20.4726 33.5369 20.4067 33.5882 20.3297C33.6396 20.2526 33.6749 20.166 33.6919 20.075C33.709 19.9839 33.7075 19.8904 33.6875 19.8Z" fill="#E1D123"/>
<path d="M2.0625 19.9375H10.3125C10.4948 19.9375 10.6697 19.8651 10.7986 19.7361C10.9276 19.6072 11 19.4323 11 19.25V8.25C11 8.06766 10.9276 7.8928 10.7986 7.76386C10.6697 7.63493 10.4948 7.5625 10.3125 7.5625H2.0625C1.88016 7.5625 1.7053 7.63493 1.57636 7.76386C1.44743 7.8928 1.375 8.06766 1.375 8.25V19.25C1.375 19.4323 1.44743 19.6072 1.57636 19.7361C1.7053 19.8651 1.88016 19.9375 2.0625 19.9375ZM2.75 8.9375H9.625V18.5625H2.75V8.9375Z" fill="#E1D123"/>
<path d="M7.5625 10.3125H6.1875C6.00516 10.3125 5.8303 10.3849 5.70136 10.5139C5.57243 10.6428 5.5 10.8177 5.5 11C5.5 11.1823 5.57243 11.3572 5.70136 11.4861C5.8303 11.6151 6.00516 11.6875 6.1875 11.6875H7.5625C7.74484 11.6875 7.9197 11.6151 8.04864 11.4861C8.17757 11.3572 8.25 11.1823 8.25 11C8.25 10.8177 8.17757 10.6428 8.04864 10.5139C7.9197 10.3849 7.74484 10.3125 7.5625 10.3125Z" fill="#E1D123"/>
<path d="M7.5625 13.0625H4.8125C4.63016 13.0625 4.4553 13.1349 4.32636 13.2639C4.19743 13.3928 4.125 13.5677 4.125 13.75C4.125 13.9323 4.19743 14.1072 4.32636 14.2361C4.4553 14.3651 4.63016 14.4375 4.8125 14.4375H7.5625C7.74484 14.4375 7.9197 14.3651 8.04864 14.2361C8.17757 14.1072 8.25 13.9323 8.25 13.75C8.25 13.5677 8.17757 13.3928 8.04864 13.2639C7.9197 13.1349 7.74484 13.0625 7.5625 13.0625Z" fill="#E1D123"/>
<path d="M7.5625 15.8125H4.8125C4.63016 15.8125 4.4553 15.8849 4.32636 16.0139C4.19743 16.1428 4.125 16.3177 4.125 16.5C4.125 16.6823 4.19743 16.8572 4.32636 16.9861C4.4553 17.1151 4.63016 17.1875 4.8125 17.1875H7.5625C7.74484 17.1875 7.9197 17.1151 8.04864 16.9861C8.17757 16.8572 8.25 16.6823 8.25 16.5C8.25 16.3177 8.17757 16.1428 8.04864 16.0139C7.9197 15.8849 7.74484 15.8125 7.5625 15.8125Z" fill="#E1D123"/>
<path d="M24.8325 19.7312C24.7874 19.6527 24.7272 19.5838 24.6554 19.5285C24.5837 19.4732 24.5017 19.4326 24.4142 19.409C24.3268 19.3853 24.2355 19.3792 24.1457 19.3908C24.0558 19.4025 23.9692 19.4317 23.8906 19.4769C23.8121 19.522 23.7432 19.5822 23.6879 19.6539C23.6326 19.7257 23.592 19.8076 23.5684 19.8951C23.5448 19.9826 23.5386 20.0738 23.5502 20.1637C23.5619 20.2535 23.5911 20.3402 23.6363 20.4187L26.6681 25.6644L15.6681 29.7894C15.6681 29.7894 15.6681 29.7894 15.62 29.7894H15.565L13.7775 30.8206L12.5881 31.5081C12.4315 31.5986 12.2586 31.6574 12.0793 31.681C11.9 31.7046 11.7178 31.6925 11.5431 31.6456C11.1922 31.5508 10.8931 31.3209 10.7113 31.0062L9.33625 28.6275C9.17449 28.3163 9.13777 27.955 9.23363 27.6176C9.32948 27.2802 9.55065 26.9922 9.85188 26.8125L12.2306 25.4375L13.9494 28.4144C14.0099 28.5193 14.0972 28.6063 14.2022 28.6667C14.3072 28.727 14.4264 28.7586 14.5475 28.7581C14.6684 28.7586 14.7873 28.7272 14.8922 28.667C14.9971 28.6069 15.0843 28.5201 15.1449 28.4155C15.2056 28.3109 15.2376 28.1922 15.2377 28.0713C15.2379 27.9504 15.2061 27.8316 15.1456 27.7269L13.3719 24.6606L22 17.545L22.2819 18.0331C22.327 18.1116 22.3872 18.1805 22.459 18.2358C22.5307 18.2911 22.6127 18.3317 22.7001 18.3554C22.7876 18.379 22.8788 18.3851 22.9687 18.3735C23.0585 18.3618 23.1452 18.3326 23.2237 18.2875C23.3023 18.2423 23.3712 18.1822 23.4265 18.1104C23.4818 18.0386 23.5224 17.9567 23.546 17.8692C23.5696 17.7818 23.5758 17.6905 23.5641 17.6007C23.5525 17.5108 23.5233 17.4241 23.4781 17.3456L22.7906 16.1562C22.7402 16.0701 22.6717 15.996 22.5898 15.939C22.5079 15.882 22.4145 15.8435 22.3162 15.8262C22.2174 15.8076 22.1158 15.8109 22.0183 15.8358C21.9209 15.8608 21.8302 15.9068 21.7525 15.9706L12.1275 23.9044L9.19875 25.5956C8.67317 25.9017 8.2639 26.3735 8.03501 26.937C7.80611 27.5005 7.7705 28.1241 7.93375 28.71L7.24625 29.1019C6.89202 29.3053 6.60617 29.6093 6.42494 29.9754C6.24372 30.3415 6.17527 30.7531 6.2283 31.1581C6.28132 31.5632 6.45341 31.9433 6.72277 32.2504C6.99212 32.5575 7.34659 32.7777 7.74125 32.8831C7.91621 32.9294 8.09651 32.9526 8.2775 32.9519C8.63917 32.9504 8.99435 32.8556 9.30875 32.6769L9.99625 32.285C10.3265 32.6261 10.7418 32.873 11.1994 33C11.4343 33.0657 11.6773 33.0981 11.9213 33.0962C12.4045 33.0973 12.8792 32.9692 13.2963 32.725L13.8944 32.3812L15.2694 34.7669C15.5426 35.2393 15.992 35.5842 16.5191 35.7259C17.0461 35.8677 17.6079 35.7947 18.0813 35.5231C18.3161 35.3878 18.522 35.2075 18.6871 34.9926C18.8522 34.7776 18.9734 34.5323 19.0436 34.2705C19.1139 34.0087 19.1318 33.7356 19.0964 33.4669C19.0611 33.1982 18.9731 32.9391 18.8375 32.7044L17.5863 30.525L27.8988 26.6544C27.9923 26.6192 28.077 26.5641 28.1471 26.4928C28.2171 26.4216 28.2708 26.336 28.3044 26.2419C28.3378 26.1489 28.3509 26.0498 28.3426 25.9513C28.3342 25.8528 28.3048 25.7573 28.2562 25.6712L24.8325 19.7312ZM8.59375 31.4806C8.51546 31.5259 8.42901 31.5552 8.33935 31.567C8.24969 31.5788 8.15858 31.5728 8.07125 31.5494C7.89511 31.5036 7.7443 31.3899 7.65188 31.2331C7.60661 31.1548 7.57724 31.0684 7.56545 30.9787C7.55365 30.889 7.55966 30.7979 7.58313 30.7106C7.6066 30.6228 7.64724 30.5405 7.7027 30.4686C7.75816 30.3966 7.82735 30.3363 7.90625 30.2912L8.50438 29.9475L9.19188 31.1369L8.59375 31.4806ZM17.6413 33.4056C17.6865 33.4839 17.7159 33.5703 17.7277 33.66C17.7395 33.7497 17.7335 33.8408 17.71 33.9281C17.661 34.1029 17.5448 34.2511 17.3869 34.3406C17.2298 34.4308 17.0436 34.4554 16.8685 34.4091C16.6934 34.3627 16.5437 34.2492 16.4519 34.0931L15.0769 31.7075L16.2181 31.0544H16.2731L17.6413 33.4056Z" fill="#E1D123"/>
</svg>
