<svg width="9" height="16" viewBox="0 0 9 16" fill="none" xmlns="http://www.w3.org/2000/svg">
<path d="M2.77063 16.248V9.0918H0.380005V6.24805H2.77063V4.01367C2.77063 3.4095 2.85917 2.87305 3.03625 2.4043C3.21334 1.93555 3.46334 1.54232 3.78625 1.22461C4.10917 0.906901 4.49459 0.664714 4.9425 0.498047C5.39042 0.33138 5.89042 0.248047 6.4425 0.248047C6.96334 0.248047 7.42688 0.263672 7.83313 0.294922C8.23938 0.326172 8.505 0.352214 8.63 0.373047V2.9043H7.13C6.53625 2.9043 6.15084 3.0319 5.97375 3.28711C5.79667 3.54232 5.70813 3.87825 5.70813 4.29492V6.24805H8.38L8.02063 9.0918H5.70813V16.248H2.77063Z" fill="white"/>
</svg>
