<svg width="44" height="44" viewBox="0 0 44 44" fill="none" xmlns="http://www.w3.org/2000/svg">
<g clip-path="url(#clip0_1_114)">
<path d="M39.6531 31.1031L35.5531 29.0531L32.9437 22.2656C32.913 22.1854 32.8661 22.1123 32.8059 22.051C32.7457 21.9897 32.6734 21.9415 32.5937 21.9094L16.4031 15.4375C16.2899 15.3924 16.166 15.3815 16.0466 15.4059C15.9273 15.4303 15.8176 15.4891 15.7312 15.575L13.5719 17.7344C13.4871 17.8209 13.4293 17.9301 13.4054 18.0488C13.3816 18.1675 13.3927 18.2906 13.4375 18.4031L19.9094 34.5938C19.9415 34.6735 19.9897 34.7457 20.051 34.8059C20.1123 34.8661 20.1854 34.913 20.2656 34.9438L27.0531 37.5531L29.1031 41.6531C29.1463 41.7435 29.2106 41.8222 29.2905 41.8826C29.3704 41.943 29.4637 41.9832 29.5625 42C29.5958 42.0031 29.6292 42.0031 29.6625 42C29.828 41.9993 29.9864 41.933 30.1031 41.8156L39.8156 32.1031C39.8871 32.0342 39.9411 31.9491 39.9732 31.8551C40.0052 31.7611 40.0144 31.6608 40 31.5625C39.9832 31.4637 39.943 31.3705 39.8826 31.2905C39.8222 31.2106 39.7435 31.1463 39.6531 31.1031ZM14.7469 18.3219L15.0937 17.9781L23.1531 26.0375C22.622 26.7901 22.3926 27.7147 22.5103 28.6283C22.628 29.5419 23.0843 30.3781 23.7888 30.9715C24.4934 31.565 25.395 31.8724 26.3153 31.8331C27.2357 31.7937 28.1077 31.4105 28.7591 30.7591C29.4105 30.1077 29.7937 29.2357 29.833 28.3153C29.8724 27.395 29.5649 26.4934 28.9715 25.7888C28.3781 25.0843 27.5419 24.628 26.6283 24.5103C25.7147 24.3926 24.7901 24.622 24.0375 25.1531L15.9781 17.0938L16.3219 16.7469L31.875 22.9688L34.3281 29.35L27.35 36.3281L20.9687 33.875L14.7469 18.3219ZM26.1562 25.7281C26.718 25.729 27.262 25.9245 27.6957 26.2815C28.1294 26.6385 28.4259 27.1348 28.5348 27.6858C28.6436 28.2369 28.558 28.8087 28.2925 29.3037C28.0271 29.7987 27.5982 30.1864 27.079 30.4007C26.5598 30.615 25.9823 30.6427 25.445 30.479C24.9076 30.3153 24.4437 29.9703 24.1322 29.5029C23.8206 29.0355 23.6808 28.4745 23.7365 27.9156C23.7921 27.3566 24.0399 26.8343 24.4375 26.4375C24.8938 25.9827 25.512 25.7275 26.1562 25.7281ZM29.8344 40.3188L28.2719 37.1938L35.1875 30.2781L38.3125 31.8406L29.8344 40.3188Z" fill="#E1D123"/>
<path d="M11.9531 35.4375C11.8336 35.3245 11.6754 35.2616 11.5109 35.2616C11.3465 35.2616 11.1883 35.3245 11.0687 35.4375L10.275 36.2312C8.15681 33.3564 6.98828 29.8923 6.93226 26.3219C6.87624 22.7514 7.93553 19.2524 9.9625 16.3125C10.5698 16.6467 11.269 16.775 11.9554 16.6783C12.6417 16.5817 13.2783 16.2652 13.7697 15.7763C14.261 15.2874 14.5807 14.6524 14.6808 13.9665C14.7809 13.2807 14.6561 12.5808 14.325 11.9719C17.2649 9.9449 20.7639 8.88561 24.3344 8.94163C27.9048 8.99765 31.3689 10.1662 34.2438 12.2844L33.4375 13.0687C33.3213 13.1859 33.2561 13.3443 33.2562 13.5094C33.2558 13.5916 33.2715 13.6732 33.3026 13.7493C33.3337 13.8255 33.3796 13.8947 33.4375 13.9531L36.1937 16.6875C36.3109 16.8039 36.4693 16.8692 36.6344 16.8692C36.7995 16.8692 36.9579 16.8039 37.075 16.6875L39.8156 13.9469C39.8737 13.8888 39.9198 13.8199 39.9513 13.744C39.9827 13.6681 39.9989 13.5868 39.9989 13.5047C39.9989 13.4225 39.9827 13.3412 39.9513 13.2653C39.9198 13.1895 39.8737 13.1205 39.8156 13.0625L37.075 10.3219C36.9579 10.2055 36.7995 10.1401 36.6344 10.1401C36.4693 10.1401 36.3109 10.2055 36.1937 10.3219L35.1344 11.375C32.5235 9.41029 29.4367 8.17592 26.1909 7.79863C22.9452 7.42133 19.6576 7.91472 16.6656 9.22812L20.2687 5.63437C20.6773 5.82958 21.1418 5.87377 21.5798 5.75909C22.0178 5.64442 22.4011 5.37829 22.6615 5.00793C22.922 4.63757 23.0429 4.18691 23.0027 3.73591C22.9625 3.28491 22.7639 2.86272 22.442 2.54425C22.1202 2.22577 21.6959 2.0316 21.2445 1.99617C20.7931 1.96074 20.3438 2.08636 19.9762 2.35072C19.6086 2.61509 19.3465 3.00112 19.2365 3.44033C19.1264 3.87954 19.1755 4.34353 19.375 4.74999L13.2938 10.8406C12.6763 10.4264 11.9342 10.2395 11.1942 10.3117C10.4542 10.3839 9.76226 10.7108 9.23652 11.2365C8.71079 11.7623 8.3839 12.4542 8.31169 13.1942C8.23948 13.9342 8.42644 14.6763 8.84062 15.2937L2.75 21.375C2.34195 21.1762 1.87661 21.1284 1.43669 21.2403C0.996766 21.3521 0.610744 21.6163 0.347218 21.9859C0.0836925 22.3555 -0.0402693 22.8066 -0.00263952 23.2589C0.0349902 23.7113 0.231774 24.1357 0.552745 24.4566C0.873715 24.7776 1.29808 24.9744 1.75044 25.012C2.2028 25.0496 2.65385 24.9257 3.02344 24.6621C3.39304 24.3986 3.65723 24.0126 3.76909 23.5727C3.88094 23.1328 3.83321 22.6674 3.63437 22.2594L7.2375 18.6656C5.92279 21.6568 5.42785 24.944 5.80349 28.1897C6.17913 31.4353 7.41182 34.5226 9.375 37.1344L8.31875 38.1937C8.20234 38.3108 8.137 38.4693 8.137 38.6344C8.137 38.7995 8.20234 38.9579 8.31875 39.075L11.0594 41.8156C11.176 41.933 11.3345 41.9993 11.5 42C11.5825 42.0001 11.6641 41.9838 11.7403 41.9522C11.8165 41.9205 11.8856 41.8741 11.9438 41.8156L14.6875 39.075C14.8039 38.9579 14.8692 38.7995 14.8692 38.6344C14.8692 38.4693 14.8039 38.3108 14.6875 38.1937L11.9531 35.4375ZM36.6406 11.6406L38.4969 13.4969L36.6406 15.3531L34.7844 13.4969L36.6406 11.6406ZM20.625 3.44687C20.7179 3.35324 20.8365 3.28931 20.9657 3.26318C21.095 3.23706 21.2291 3.24992 21.3511 3.30014C21.473 3.35036 21.5773 3.43568 21.6506 3.54525C21.724 3.65483 21.7632 3.78374 21.7632 3.91562C21.7632 4.0475 21.724 4.1764 21.6506 4.28598C21.5773 4.39556 21.473 4.48087 21.3511 4.53109C21.2291 4.58131 21.095 4.59418 20.9657 4.56805C20.8365 4.54193 20.7179 4.478 20.625 4.38437C20.5634 4.32284 20.5145 4.24977 20.4812 4.16934C20.4478 4.0889 20.4307 4.00269 20.4307 3.91562C20.4307 3.82855 20.4478 3.74233 20.4812 3.6619C20.5145 3.58147 20.5634 3.5084 20.625 3.44687ZM10.125 12.125C10.3065 11.9426 10.5222 11.7979 10.7598 11.6992C10.9974 11.6005 11.2521 11.5496 11.5094 11.5496C11.7667 11.5496 12.0214 11.6005 12.259 11.6992C12.4965 11.7979 12.7123 11.9426 12.8937 12.125C13.1681 12.3989 13.355 12.748 13.4309 13.1282C13.5067 13.5083 13.4681 13.9025 13.3199 14.2607C13.1717 14.6189 12.9206 14.9251 12.5983 15.1405C12.276 15.356 11.897 15.471 11.5094 15.471C11.1217 15.471 10.7428 15.356 10.4205 15.1405C10.0982 14.9251 9.84706 14.6189 9.69885 14.2607C9.55064 13.9025 9.51202 13.5083 9.58788 13.1282C9.66374 12.748 9.85066 12.3989 10.125 12.125ZM2.3875 23.5625C2.2599 23.6689 2.09713 23.7237 1.93115 23.7162C1.76518 23.7087 1.60801 23.6394 1.49053 23.522C1.37305 23.4045 1.30375 23.2473 1.29625 23.0813C1.28875 22.9154 1.34359 22.7526 1.45 22.625C1.57506 22.5021 1.7434 22.4332 1.91875 22.4332C2.0941 22.4332 2.26244 22.5021 2.3875 22.625C2.44911 22.6865 2.49798 22.7596 2.53132 22.84C2.56467 22.9205 2.58183 23.0067 2.58183 23.0937C2.58183 23.1808 2.56467 23.267 2.53132 23.3475C2.49798 23.4279 2.44911 23.501 2.3875 23.5625ZM11.5094 40.4781L9.65312 38.6219L11.5094 36.7656L13.3656 38.6219L11.5094 40.4781Z" fill="#E1D123"/>
</g>
<defs>
<clipPath id="clip0_1_114">
<rect width="40" height="40" fill="white" transform="translate(0 2)"/>
</clipPath>
</defs>
</svg>
