<svg width="15" height="15" viewBox="0 0 15 15" fill="none" xmlns="http://www.w3.org/2000/svg">
<path d="M3.64062 14.248H0.734375V4.9043H3.64062V14.248ZM2.1875 3.63867C1.71875 3.63867 1.32031 3.4694 0.992188 3.13086C0.664062 2.79232 0.5 2.39388 0.5 1.93555C0.5 1.4668 0.664062 1.06836 0.992188 0.740234C1.32031 0.412109 1.71875 0.248047 2.1875 0.248047C2.64583 0.248047 3.03906 0.412109 3.36719 0.740234C3.69531 1.06836 3.85938 1.4668 3.85938 1.93555C3.85938 2.39388 3.69531 2.79232 3.36719 3.13086C3.03906 3.4694 2.64583 3.63867 2.1875 3.63867ZM14.5 14.248H11.6094V9.70117C11.6094 9.15951 11.5417 8.61263 11.4062 8.06055C11.2708 7.50846 10.8333 7.23242 10.0938 7.23242C9.34375 7.23242 8.86719 7.47982 8.66406 7.97461C8.46094 8.4694 8.35938 9.01888 8.35938 9.62305V14.248H5.45312V4.9043H8.23438V6.18555H8.28125C8.46875 5.81055 8.79688 5.46419 9.26562 5.14648C9.73438 4.82878 10.3229 4.66992 11.0312 4.66992C11.7604 4.66992 12.3542 4.7845 12.8125 5.01367C13.2604 5.24284 13.612 5.55534 13.8672 5.95117C14.1224 6.34701 14.2917 6.81576 14.375 7.35742C14.4583 7.89909 14.5 8.48763 14.5 9.12305V14.248Z" fill="white"/>
</svg>
