<svg width="44" height="44" viewBox="0 0 44 44" fill="none" xmlns="http://www.w3.org/2000/svg">
<path d="M38.5 32.4501V30.6625C38.5 27.6375 36.7125 24.9563 33.9625 23.7188L27.9125 21.0375C28.9437 19.9375 29.5625 18.425 29.5625 16.9125L31.2125 16.0875C31.9 15.7438 32.3812 15.0563 32.3812 14.2313V13.75C32.3812 12.5813 31.4875 11.6875 30.3187 11.6875H29.6312V6.87505C29.6312 4.95005 28.1187 3.43755 26.1937 3.43755H25.85C24.9562 3.43755 24.0625 3.0938 23.4437 2.4063L22.275 1.23755L18.3562 2.5438C17.875 2.6813 17.3937 2.9563 16.9812 3.2313L16.4312 3.6438C15.125 4.6063 14.4375 6.05005 14.4375 7.56255V11.6875H13.75C12.5812 11.6875 11.6875 12.5813 11.6875 13.75V14.3C11.6875 15.0563 12.1 15.8125 12.8562 16.1563L14.5062 16.9813C14.5062 18.4938 15.125 19.9375 16.1562 21.1063L10.1062 23.7875C7.35623 25.025 5.56873 27.7063 5.56873 30.7313V42.625H37.8812C39.05 42.625 39.9437 41.7313 39.9437 40.5625V34.375C39.875 33.4813 39.325 32.725 38.5 32.4501ZM29.5625 13.0625H30.25C30.6625 13.0625 30.9375 13.3375 30.9375 13.75V14.3C30.9375 14.575 30.8 14.7813 30.525 14.9188L29.5625 15.4V13.0625ZM14.4375 15.4L13.475 14.9188C13.2687 14.7813 13.0625 14.575 13.0625 14.3V13.75C13.0625 13.3375 13.3375 13.0625 13.75 13.0625H14.4375V15.4ZM29.9062 23.4438L26.7437 26.6063L23.5125 23.8563C23.8562 23.7188 24.1312 23.5813 24.4062 23.4438L26.4687 22.2063C26.5375 22.2063 26.5375 22.1375 26.6062 22.0688L29.9062 23.4438ZM15.8125 7.56255C15.8125 6.46255 16.2937 5.4313 17.1875 4.81255L17.7375 4.40005C18.0125 4.1938 18.3562 3.98755 18.7 3.9188L21.7937 2.88755L22.3437 3.43755C23.2375 4.3313 24.475 4.8813 25.7812 4.8813H26.125C27.2937 4.8813 28.1875 5.77505 28.1875 6.9438V9.8313C27.9812 9.76255 27.7062 9.6938 27.5 9.6938H23.1687C22.2062 9.6938 21.3125 9.21255 20.7625 8.4563L20.5562 8.25005C19.8687 7.3563 18.7 7.15005 17.7375 7.7688L15.8125 9.0063V7.56255ZM17.2562 22C17.325 22 17.325 22.0688 17.3937 22.1376L19.4562 23.375C19.7312 23.5813 20.075 23.7188 20.35 23.7875L17.1187 26.5375L13.9562 23.375L17.2562 22ZM21.3125 41.25H13.75V33.6875H12.375V41.25H6.87498V30.5938C6.87498 28.1188 8.31873 25.9188 10.5875 24.9563L12.7187 23.9938L17.1187 28.3938L21.3125 24.8188V41.25ZM20.2125 22.2063L18.15 20.9688C16.7062 20.075 15.8125 18.5625 15.8125 16.8438V11.0688C15.8125 10.8625 15.95 10.6563 16.0875 10.5188L18.4937 8.8688C18.7687 8.66255 19.1812 8.7313 19.4562 9.0063L19.6625 9.21255C20.4875 10.3125 21.7937 10.9313 23.1687 11H27.5C27.9125 11 28.1875 11.275 28.1875 11.6875V16.8438C28.1875 18.5625 27.2937 20.075 25.85 20.9688L23.7875 22.2063C22.6875 22.8938 21.3125 22.8938 20.2125 22.2063ZM26.2625 41.25H22.6875V24.8876L26.8812 28.4626L31.2812 24.0625L33.4125 25.0251C35.6812 25.9876 37.125 28.2563 37.125 30.6625V32.3125H35.75V31.625C35.75 30.4563 34.8562 29.5625 33.6875 29.5625H32.3125C31.1437 29.5625 30.25 30.4563 30.25 31.625V32.3125H28.1875C27.0187 32.3125 26.125 33.2063 26.125 34.375V40.5625C26.125 40.7688 26.1937 41.0438 26.2625 41.25ZM34.375 31.625V32.3125H31.625V31.625C31.625 31.2125 31.9 30.9375 32.3125 30.9375H33.6875C34.1 30.9375 34.375 31.2125 34.375 31.625ZM38.5 40.5625C38.5 40.975 38.225 41.25 37.8125 41.25H28.1875C27.775 41.25 27.5 40.975 27.5 40.5625V37.125H32.3125V38.5H33.6875V37.125H38.5V40.5625ZM38.5 35.75H27.5V34.375C27.5 33.9626 27.775 33.6875 28.1875 33.6875H37.8125C38.225 33.6875 38.5 33.9626 38.5 34.375V35.75Z" fill="#E1D123"/>
</svg>
