<svg width="19" height="19" viewBox="0 0 19 19" fill="none" xmlns="http://www.w3.org/2000/svg">
<g clip-path="url(#clip0_2_188)">
<path d="M16.9497 11.6616L14.8442 14.415C14.4229 14.9659 13.769 15.289 13.0755 15.289H9.16602C8.8586 15.289 8.60938 15.0398 8.60938 14.7324C8.60938 14.425 8.8586 14.1757 9.16602 14.1757H12.5544C13.2827 14.1757 13.8926 13.5797 13.8787 12.8516C13.8652 12.1459 13.2889 11.5781 12.5801 11.5781H8.68359C7.56486 10.5024 5.83845 10.3765 4.57551 11.2786L4.15625 11.5781V17.8867H7.86719H8.60938H13.8368C14.9732 17.8867 16.0316 17.3088 16.6462 16.3529L18.8185 12.9736C18.937 12.7893 19 12.5749 19 12.3557C19 11.263 17.6134 10.7936 16.9497 11.6616Z" fill="#888888"/>
<path d="M2.48633 10.4648H0.556641C0.249227 10.4648 0 10.7141 0 11.0215V18.4434C0 18.7508 0.249227 19 0.556641 19H2.48633C2.79374 19 3.04297 18.7508 3.04297 18.4434V11.0215C3.04297 10.7141 2.79374 10.4648 2.48633 10.4648Z" fill="#888888"/>
<path d="M10.6248 3.07654C10.5115 3.16337 10.4491 3.29485 10.4277 3.40889C10.398 3.5662 10.4355 3.71233 10.5233 3.78113C10.5542 3.80537 10.5883 3.82919 10.6248 3.85261V3.07654Z" fill="#888888"/>
<path d="M11.0215 9.27734C13.5792 9.27734 15.6602 7.19644 15.6602 4.63867C15.6602 2.08091 13.5792 0 11.0215 0C8.46372 0 6.38281 2.08091 6.38281 4.63867C6.38281 7.19644 8.46372 9.27734 11.0215 9.27734ZM9.6173 6.15529C9.72945 5.98385 9.95949 5.93561 10.131 6.0479C10.3314 6.17901 10.4571 6.23586 10.6248 6.25942V4.69226C10.3878 4.58364 10.2106 4.4791 10.0652 4.36506C9.75728 4.12352 9.61667 3.70448 9.69827 3.27138C9.78719 2.79942 10.1157 2.42391 10.5556 2.29143C10.5789 2.28442 10.6019 2.278 10.6248 2.27195V2.04102C10.6248 1.8361 10.791 1.66992 10.9959 1.66992C11.2008 1.66992 11.367 1.8361 11.367 2.04102V2.23128C11.7273 2.29366 11.9819 2.47104 12.1053 2.61261C12.2399 2.76713 12.2237 3.00155 12.0692 3.13615C11.9155 3.27004 11.6828 3.25483 11.5478 3.10257C11.5393 3.09399 11.4803 3.03722 11.367 2.99539V4.19447C11.4328 4.21893 11.4987 4.24264 11.5633 4.2655C12.2156 4.4961 12.5784 5.09994 12.4661 5.7681C12.3788 6.28744 11.9836 6.81413 11.367 6.97055V7.23633C11.367 7.44125 11.2008 7.60742 10.9959 7.60742C10.791 7.60742 10.6248 7.44125 10.6248 7.23633V7.00618C10.3252 6.98027 10.0768 6.89934 9.7247 6.669C9.55318 6.55678 9.50512 6.32681 9.6173 6.15529Z" fill="#888888"/>
<path d="M11.7342 5.64507C11.7586 5.50001 11.7685 5.15434 11.3669 4.98523V6.17722C11.5757 6.05765 11.7004 5.8462 11.7342 5.64507Z" fill="#888888"/>
</g>
<defs>
<clipPath id="clip0_2_188">
<rect width="19" height="19" fill="white"/>
</clipPath>
</defs>
</svg>
