<svg width="23" height="23" viewBox="0 0 23 23" fill="none" xmlns="http://www.w3.org/2000/svg">
<path d="M15.1075 16.4355L15.4825 16.0605L11.545 6.4043L7.60748 16.0605L7.98248 16.4355L11.545 14.8418L15.1075 16.4355ZM3.76373 3.63867C5.91998 1.48242 8.51373 0.404297 11.545 0.404297C14.5762 0.404297 17.17 1.48242 19.3262 3.63867C21.4825 5.79492 22.5606 8.38867 22.5606 11.4199C22.5606 14.4512 21.4825 17.0449 19.3262 19.2012C17.17 21.3574 14.5762 22.4355 11.545 22.4355C8.51373 22.4355 5.91998 21.3574 3.76373 19.2012C1.60748 17.0449 0.529358 14.4512 0.529358 11.4199C0.529358 8.38867 1.60748 5.79492 3.76373 3.63867Z" fill="white"/>
</svg>
