<svg width="44" height="44" viewBox="0 0 44 44" fill="none" xmlns="http://www.w3.org/2000/svg">
<path d="M33.3291 3.86426H10.2524C6.5592 3.86426 3.66666 6.73388 3.66666 10.3973V23.5126C3.66666 27.1806 6.5592 30.0543 10.2524 30.0543H13.095C13.6734 30.0543 14.1428 29.5855 14.1428 29.0066C14.1428 28.4282 13.6739 27.9588 13.095 27.9588H10.2524C7.73436 27.9588 5.7617 26.0059 5.7617 23.5121V10.3973C5.7617 7.90859 7.73436 5.9593 10.2524 5.9593H33.3286C35.9897 5.9593 38.2378 7.99155 38.2378 10.3973V13.2926C38.2378 13.871 38.7067 14.3404 39.2856 14.3404C39.8644 14.3404 40.3333 13.8715 40.3333 13.2926V10.3973C40.3333 6.85626 37.1255 3.86426 33.3291 3.86426Z" fill="#E1D123"/>
<path d="M20.5045 22.9575L25.9701 18.6963C26.5632 18.2554 26.9175 17.5633 26.9175 16.8447C26.9175 16.1929 26.6209 15.598 26.1122 15.2203L20.4852 10.9377C20.1062 10.6558 19.6776 10.5068 19.2459 10.5068C18.1468 10.5068 17.2856 11.4615 17.2856 12.6793V21.23C17.2856 22.4478 18.1463 23.4025 19.2459 23.4025C19.6776 23.4025 20.1062 23.2535 20.5045 22.9575ZM19.3811 12.7302L24.822 16.8419C24.8252 16.8685 24.8 16.9565 24.7014 17.0298L19.3815 21.1718L19.3811 12.7302Z" fill="#E1D123"/>
<path d="M36.1895 30.162C38.2988 30.162 40.0148 28.446 40.0148 26.3363C40.0148 24.2266 38.2988 22.5106 36.1895 22.5106C34.0803 22.5106 32.3643 24.2266 32.3643 26.3363C32.3643 26.5389 32.3936 26.7337 32.4243 26.928L26.8652 30.2803L20.5778 26.4894C20.0814 26.1901 19.4379 26.3496 19.1395 26.8455C18.8407 27.3405 19.0002 27.9845 19.4957 28.2833L24.8366 31.504L19.4957 34.7247C19.0007 35.0236 18.8407 35.6671 19.1395 36.1625C19.3366 36.4889 19.6827 36.6695 20.0379 36.6695C20.2221 36.6695 20.4087 36.6209 20.5782 36.5187L26.8657 32.7278L32.3904 36.059C32.3849 36.1437 32.3647 36.2249 32.3647 36.3106C32.3647 38.4203 34.0807 40.1363 36.19 40.1363C38.2992 40.1363 40.0152 38.4203 40.0152 36.3106C40.0152 34.2013 38.2992 32.4853 36.19 32.4853C34.9287 32.4853 33.8167 33.1068 33.1196 34.0515L28.8947 31.504L33.3185 28.8365C34.0193 29.6414 35.04 30.162 36.1895 30.162ZM36.1895 24.6057C37.1433 24.6057 37.9197 25.3821 37.9197 26.3363C37.9197 27.2906 37.1438 28.067 36.1895 28.067C35.2357 28.067 34.4593 27.2906 34.4593 26.3363C34.4593 25.3821 35.2353 24.6057 36.1895 24.6057ZM36.1895 34.5804C37.1433 34.5804 37.9197 35.3563 37.9197 36.3106C37.9197 37.2648 37.1438 38.0412 36.1895 38.0412C35.2357 38.0412 34.4593 37.2648 34.4593 36.3106C34.4593 35.3563 35.2353 34.5804 36.1895 34.5804Z" fill="#E1D123"/>
</svg>
